<svg xmlns="http://www.w3.org/2000/svg" width="512" height="512" viewBox="0 0 512 512" fill="none"><metadata><rdf:RDF xmlns:rdf="http://www.w3.org/1999/02/22-rdf-syntax-ns#" xmlns:dc="http://purl.org/dc/elements/1.1/"><rdf:Description><dc:creator>RealFaviconGenerator</dc:creator><dc:source>https://realfavicongenerator.net</dc:source></rdf:Description></rdf:RDF></metadata><rect width="512" height="512" fill="#09090B"></rect><path d="M239.9 366.6C223.5 366.6 210.4 362.8 200.6 355.2C191 347.6 186.2 337 186.2 323.4C186.2 309.8 190.2 299.1 198.2 291.3C206.2 283.5 218.9 278 236.3 274.8L292.7 264.3C292.7 250.9 289.5 240.9 283.1 234.3C276.9 227.7 267.5 224.4 254.9 224.4C243.9 224.4 235.2 226.9 228.8 231.9C222.4 236.7 218 243.7 215.6 252.9L188.9 250.8C191.9 235.8 199.1 223.7 210.5 214.5C222.1 205.1 236.9 200.4 254.9 200.4C275.3 200.4 290.9 206.2 301.7 217.8C312.5 229.2 317.9 245 317.9 265.2V330.9C317.9 334.5 318.5 337.1 319.7 338.7C321.1 340.1 323.3 340.8 326.3 340.8H332.6V363C331.8 363.2 330.5 363.3 328.7 363.3C326.9 363.5 325 363.6 323 363.6C315.8 363.6 309.9 362.5 305.3 360.3C300.9 357.9 297.7 354.3 295.7 349.5C293.7 344.5 292.7 338 292.7 330L295.7 330.6C294.3 337.4 290.9 343.6 285.5 349.2C280.1 354.6 273.4 358.9 265.4 362.1C257.4 365.1 248.9 366.6 239.9 366.6ZM242.3 344.4C252.9 344.4 261.9 342.4 269.3 338.4C276.9 334.2 282.7 328.6 286.7 321.6C290.7 314.4 292.7 306.4 292.7 297.6V286.2L241.1 295.8C230.3 297.8 222.8 300.9 218.6 305.1C214.6 309.1 212.6 314.4 212.6 321C212.6 328.4 215.2 334.2 220.4 338.4C225.8 342.4 233.1 344.4 242.3 344.4Z" fill="#FAFAFA"></path></svg>